Coordinates
version=1
nRows=6
nColumns=107
inDegrees=yes

Units are S.I. units (second, meters, Newtons, ...)
If the header above contains a line with 'inDegrees', this indicates whether rotational values are in degrees (yes) or radians (no).

endheader
time	sternoclavicular_r2	sternoclavicular_r3	unrotscap_r3	unrotscap_r2	acromioclavicular_r2	acromioclavicular_r3	acromioclavicular_r1	unrothum_r1	unrothum_r3	unrothum_r2	elv_angle	shoulder_elv	shoulder1_r2	shoulder_rot	elbow_flexion	pro_sup	deviation	flexion	proximal_distal_r1	proximal_distal_r3	cmc_flexion	cmc_abduction	mp_flexion	ip_flexion	mcp2_flexion	mcp2_abduction	pm2_flexion	md2_flexion	mcp3_flexion	mcp3_abduction	pm3_flexion	md3_flexion	mcp4_flexion	mcp4_abduction	pm4_flexion	md4_flexion	mcp5_flexion	mcp5_abduction	pm5_flexion	md5_flexion	bicpt_tx	bicpt_ty	bicpt_tz	bicpt2_tx	bicpt2_ty	bicpt2_tz	ptpt_tx	ptpt_ty	ptpt_tz	FCUpt_tx	FCUpt_ty	FCUpt_tz	EDCpt_tx	EDCpt_ty	EDCpt_tz	APLpt_tx	APLpt_ty	APLpt_tz	FPLpt_tx	FPLpt_ty	FPLpt_tz	FPLpt2_tx	FPLpt2_ty	FPLpt2_tz	PEC1pt2_tx	PEC1pt2_ty	PEC1pt2_tz	PEC1pt3_tx	PEC1pt3_ty	PEC1pt3_tz	PEC2pt2_tx	PEC2pt2_ty	PEC2pt2_tz	PEC2pt3_tx	PEC2pt3_ty	PEC2pt3_tz	PEC3pt2_tx	PEC3pt2_ty	PEC3pt2_tz	PEC3pt3_tx	PEC3pt3_ty	PEC3pt3_tz	DELT2pt2a_tx	DELT2pt2a_ty	DELT2pt2a_tz	DELT2pt2_tx	DELT2pt2_ty	DELT2pt2_tz	LAT1pt2_tx	LAT1pt2_ty	LAT1pt2_tz	LAT1pt3_tx	LAT1pt3_ty	LAT1pt3_tz	LAT2pt2_tx	LAT2pt2_ty	LAT2pt2_tz	LAT2pt3_tx	LAT2pt3_ty	LAT2pt3_tz	LAT3pt2_tx	LAT3pt2_ty	LAT3pt2_tz	LAT3pt3_tx	LAT3pt3_ty	LAT3pt3_tz
      0.66666667	     -0.31302879	      0.13258422	     -0.13258422	      0.31302879	     -0.06338196	      0.51223073	      0.23024419	     -0.23024419	     -0.51223073	      0.06338196	    102.04672067	     74.11234849	     -1.78105127	    -38.74455296	     30.56610396	     80.77463155	      0.33224366	     -0.57073691	      0.36055003	     -0.28536846	     37.39988357	    -16.07776105	     -3.46239279	      4.35858984	     89.04073155	     12.55979131	     80.63363320	     75.37543824	     93.15699458	      2.09578695	     83.11938606	     53.93782640	     87.39353412	    -12.68392632	     96.77042728	     39.45129047	     85.04831586	    -13.96427078	     99.93421033	      5.45353305	      0.00091103	     -0.03110334	     -0.00486430	      0.01474881	     -0.01850343	     -0.00195173	      0.00158167	     -0.06875922	     -0.00655683	      0.01214194	     -0.18241081	     -0.00004984	     -0.00969293	      0.00329548	     -0.00059683	      0.00031115	      0.00012446	      0.00062231	      0.00039828	      0.00119483	      0.00067209	     -0.00001256	     -0.00015791	     -0.00018950	      0.00242924	      0.00852293	      0.00592899	     -0.00794650	      0.01918688	     -0.01819871	      0.00242924	      0.00852293	      0.00592899	      0.00053526	      0.01778698	     -0.00934640	      0.00386939	      0.00473949	      0.01577242	      0.00000000	      0.00734297	      0.00000000	     -0.00695833	     -0.03215655	     -0.00605205	      0.02224307	     -0.00106526	     -0.01218103	     -0.00086464	      0.01449309	     -0.00592899	      0.00238807	      0.02091617	     -0.01729290	     -0.00580547	      0.01255794	     -0.00531139	     -0.01210503	      0.02651577	     -0.02968614	     -0.02272781	      0.01404018	     -0.00712303	     -0.01506952	      0.03063313	     -0.03709738
      0.70000000	     -0.31355803	      0.13280838	     -0.13280838	      0.31355803	     -0.06348912	      0.51309676	      0.23063346	     -0.23063346	     -0.51309676	      0.06348912	    101.90578977	     74.23765143	     -1.77859156	    -38.05568233	     30.46368562	     80.28626019	      0.33832555	     -0.56526996	      0.36546610	     -0.28263498	     37.33112367	    -16.04408224	     -3.61158019	      4.43213947	     89.16072665	     12.55529662	     80.59036151	     75.63585644	     93.15878520	      2.07416618	     83.15737496	     53.85622685	     87.52237549	    -12.68134257	     96.75516687	     39.40772620	     85.06805070	    -13.96357050	     99.88159206	      5.46313532	      0.00090764	     -0.03109160	     -0.00486241	      0.01479320	     -0.01847561	     -0.00203163	      0.00161775	     -0.06873589	     -0.00651749	      0.01208666	     -0.18242659	     -0.00006129	     -0.00963433	      0.00326950	     -0.00058260	      0.00031081	      0.00012433	      0.00062163	      0.00039784	      0.00119353	      0.00067136	     -0.00001259	     -0.00015907	     -0.00019089	      0.00243335	      0.00853734	      0.00593902	     -0.00795993	      0.01921932	     -0.01822948	      0.00243335	      0.00853734	      0.00593902	      0.00053616	      0.01781705	     -0.00936220	      0.00387422	      0.00474750	      0.01578462	      0.00000000	      0.00736798	      0.00000000	     -0.00697010	     -0.03221092	     -0.00607282	      0.02201520	     -0.00104036	     -0.01178403	     -0.00086611	      0.01451760	     -0.00593902	      0.00239210	      0.02095153	     -0.01732213	     -0.00581529	      0.01257917	     -0.00532037	     -0.01212549	      0.02656060	     -0.02973633	     -0.02276623	      0.01406392	     -0.00713507	     -0.01509500	      0.03068492	     -0.03716010
      0.73333333	     -0.31383901	      0.13292739	     -0.13292739	      0.31383901	     -0.06354602	      0.51355655	      0.23084013	     -0.23084013	     -0.51355655	      0.06354602	    101.85677768	     74.30417565	     -1.77773614	    -37.77767955	     30.37250722	     79.93686422	      0.33682118	     -0.57370526	      0.36425608	     -0.28685263	     37.31144421	    -15.85880091	     -4.07587899	      4.92189760	     89.08546338	     12.55419450	     80.80740440	     74.25067533	     93.31944583	      2.01962414	     83.09485320	     53.66563617	     87.50940124	    -12.70108036	     96.91379503	     39.23276099	     85.40167117	    -13.96638058	     99.61700078	      5.49278279	      0.00090463	     -0.03108115	     -0.00486072	      0.01482459	     -0.01845084	     -0.00208857	      0.00164357	     -0.06871920	     -0.00648934	      0.01204716	     -0.18243784	     -0.00006936	     -0.00959240	      0.00325096	     -0.00057249	      0.00031134	      0.00012454	      0.00062269	      0.00039852	      0.00119556	      0.00067250	     -0.00001259	     -0.00015938	     -0.00019125	      0.00243553	      0.00854499	      0.00594434	     -0.00796707	      0.01923654	     -0.01824582	      0.00243553	      0.00854499	      0.00594434	      0.00053664	      0.01783302	     -0.00937059	      0.00387679	      0.00475176	      0.01579108	      0.00000000	      0.00738127	      0.00000000	     -0.00697634	     -0.03223978	     -0.00608387	      0.02192132	     -0.00103034	     -0.01162513	     -0.00086688	      0.01453061	     -0.00594434	      0.00239425	      0.02097031	     -0.01733766	     -0.00582050	      0.01259044	     -0.00532514	     -0.01213636	      0.02658441	     -0.02976298	     -0.02278663	      0.01407653	     -0.00714146	     -0.01510853	      0.03071242	     -0.03719340
      0.76666667	     -0.31465874	      0.13327459	     -0.13327459	      0.31465874	     -0.06371199	      0.51489793	      0.23144307	     -0.23144307	     -0.51489793	      0.06371199	    101.59659433	     74.49825378	     -1.77319508	    -36.59665789	     30.19378264	     78.63167234	      0.33806222	     -0.58656774	      0.36525412	     -0.29328387	     36.66570678	    -15.85988592	     -3.20068891	      3.67907812	     89.03419816	     12.49275713	     80.59220667	     76.01117733	     93.21603866	      1.95671773	     83.13283602	     54.92733957	     87.63349829	    -12.69645040	     96.79596150	     39.35000455	     85.31443776	    -13.96568869	    100.11353784	      5.43250083	      0.00089872	     -0.03106067	     -0.00485742	      0.01493949	     -0.01840229	     -0.00229981	      0.00174001	     -0.06865684	     -0.00638420	      0.01189993	     -0.18247955	     -0.00009872	     -0.00943578	      0.00318204	     -0.00053533	      0.00031201	      0.00012480	      0.00062401	      0.00039937	      0.00119810	      0.00067393	     -0.00001278	     -0.00016978	     -0.00020373	      0.00244189	      0.00856731	      0.00595987	     -0.00798788	      0.01928679	     -0.01829348	      0.00244189	      0.00856731	      0.00595987	      0.00053804	      0.01787960	     -0.00939507	      0.00388426	      0.00476417	      0.01580987	      0.00000000	      0.00742013	      0.00000000	     -0.00699456	     -0.03232399	     -0.00611615	      0.02151142	     -0.00098794	     -0.01095791	     -0.00086915	      0.01456856	     -0.00595987	      0.00240050	      0.02102508	     -0.01738294	     -0.00583570	      0.01262333	     -0.00533905	     -0.01216806	      0.02665384	     -0.02984071	     -0.02284615	      0.01411329	     -0.00716012	     -0.01514799	      0.03079264	     -0.03729055
      0.80000000	     -0.31317515	      0.13264621	     -0.13264621	      0.31317515	     -0.06341160	      0.51247022	      0.23035184	     -0.23035184	     -0.51247022	      0.06341160	    102.02344865	     74.14699973	     -1.78064509	    -38.56838398	     30.51002467	     80.62465616	      0.33420239	     -0.57326245	      0.36213964	     -0.28663122	     37.13442004	    -15.65845604	     -4.43947371	      4.71777916	     88.87394045	     12.57148059	     80.66334695	     75.05916475	     93.03463507	      2.07921707	     83.16616087	     53.88549109	     87.31459459	    -12.63614106	     96.84983558	     39.26250102	     84.86019387	    -13.95415895	     99.88912804	      5.44326433	      0.00090918	     -0.03109692	     -0.00486326	      0.01476250	     -0.01848820	     -0.00197630	      0.00159275	     -0.06875206	     -0.00654475	      0.01212496	     -0.18241566	     -0.00005338	     -0.00967494	      0.00328749	     -0.00059245	      0.00031132	      0.00012453	      0.00062264	      0.00039849	      0.00119546	      0.00067245	     -0.00001266	     -0.00016227	     -0.00019472	      0.00243038	      0.00852691	      0.00593176	     -0.00795021	      0.01919585	     -0.01820722	      0.00243038	      0.00852691	      0.00593176	      0.00053551	      0.01779529	     -0.00935077	      0.00387073	      0.00474171	      0.01577580	      0.00000000	      0.00734988	      0.00000000	     -0.00696159	     -0.03217159	     -0.00605779	      0.02218542	     -0.00105888	     -0.01207908	     -0.00086505	      0.01449987	     -0.00593176	      0.00238918	      0.02092595	     -0.01730098	     -0.00580819	      0.01256381	     -0.00531387	     -0.01211069	      0.02652817	     -0.02970002	     -0.02273843	      0.01404675	     -0.00712636	     -0.01507657	      0.03064745	     -0.03711472
      0.83333333	     -0.31342835	      0.13275346	     -0.13275346	      0.31342835	     -0.06346287	      0.51288456	      0.23053808	     -0.23053808	     -0.51288456	      0.06346287	    101.99498606	     74.20694817	     -1.78014833	    -38.35446895	     30.38075437	     80.25167454	      0.32974751	     -0.59016959	      0.35851490	     -0.29508480	     37.04425490	    -15.52863061	     -4.74031773	      4.79003133	     88.91374248	     12.56284922	     80.78240338	     74.52900126	     93.10142725	      2.15131044	     83.22425269	     53.55358975	     87.29503314	    -12.65381531	     97.04588403	     38.96115512	     85.04769457	    -13.95684834	     99.86112651	      5.43508121	      0.00090490	     -0.03108210	     -0.00486087	      0.01479633	     -0.01845308	     -0.00203728	      0.00162031	     -0.06873424	     -0.00651470	      0.01208275	     -0.18242771	     -0.00006210	     -0.00963018	      0.00326766	     -0.00058159	      0.00031215	      0.00012486	      0.00062430	      0.00039955	      0.00119865	      0.00067424	     -0.00001268	     -0.00016373	     -0.00019648	      0.00243234	      0.00853381	      0.00593656	     -0.00795664	      0.01921137	     -0.01822194	      0.00243234	      0.00853381	      0.00593656	      0.00053594	      0.01780968	     -0.00935833	      0.00387304	      0.00474554	      0.01578164	      0.00000000	      0.00736184	      0.00000000	     -0.00696721	     -0.03219760	     -0.00606773	      0.02211484	     -0.00105115	     -0.01195568	     -0.00086575	      0.01451159	     -0.00593656	      0.00239111	      0.02094287	     -0.01731497	     -0.00581288	      0.01257397	     -0.00531817	     -0.01212048	      0.02654962	     -0.02972403	     -0.02275682	      0.01405811	     -0.00713212	     -0.01508876	      0.03067223	     -0.03714473
